<mxfile host="app.diagrams.net" modified="2023-04-12T07:02:20.068Z" agent="Mozilla/5.0 (Macintosh; Intel Mac OS X 10.15; rv:109.0) Gecko/20100101 Firefox/111.0" etag="jIIgCcm3t8NwJRWzyARW" version="21.1.6" type="google">
  <diagram name="Pagina-1" id="2JrqRWIIHDZOnAzu7GF9">
    <mxGraphModel grid="1" page="1" gridSize="10" guides="1" tooltips="1" connect="1" arrows="1" fold="1" pageScale="1" pageWidth="827" pageHeight="1169" math="0" shadow="0">
      <root>
        <mxCell id="0" />
        <mxCell id="1" parent="0" />
        <mxCell id="g1serccbO22LYITviWlD-5" value="" style="edgeStyle=orthogonalEdgeStyle;rounded=0;orthogonalLoop=1;jettySize=auto;html=1;fontSize=15;" edge="1" parent="1" source="g1serccbO22LYITviWlD-1">
          <mxGeometry relative="1" as="geometry">
            <mxPoint x="414" y="140" as="targetPoint" />
          </mxGeometry>
        </mxCell>
        <mxCell id="g1serccbO22LYITviWlD-1" value="start" style="ellipse;whiteSpace=wrap;html=1;fontSize=15;" vertex="1" parent="1">
          <mxGeometry x="354" y="20" width="120" height="80" as="geometry" />
        </mxCell>
        <mxCell id="g1serccbO22LYITviWlD-7" value="" style="edgeStyle=orthogonalEdgeStyle;rounded=0;orthogonalLoop=1;jettySize=auto;html=1;exitX=0.5;exitY=1;exitDx=0;exitDy=0;fontSize=15;" edge="1" parent="1" target="g1serccbO22LYITviWlD-6">
          <mxGeometry relative="1" as="geometry">
            <mxPoint x="414" y="210" as="sourcePoint" />
          </mxGeometry>
        </mxCell>
        <mxCell id="g1serccbO22LYITviWlD-9" value="" style="edgeStyle=orthogonalEdgeStyle;rounded=0;orthogonalLoop=1;jettySize=auto;html=1;fontSize=15;" edge="1" parent="1" source="g1serccbO22LYITviWlD-6" target="g1serccbO22LYITviWlD-8">
          <mxGeometry relative="1" as="geometry" />
        </mxCell>
        <mxCell id="g1serccbO22LYITviWlD-6" value="int numero1 = random.nextInt(6);" style="shape=parallelogram;perimeter=parallelogramPerimeter;whiteSpace=wrap;html=1;fixedSize=1;fontSize=15;" vertex="1" parent="1">
          <mxGeometry x="354" y="260" width="120" height="60" as="geometry" />
        </mxCell>
        <mxCell id="g1serccbO22LYITviWlD-11" value="" style="edgeStyle=orthogonalEdgeStyle;rounded=0;orthogonalLoop=1;jettySize=auto;html=1;fontSize=15;" edge="1" parent="1" source="g1serccbO22LYITviWlD-8" target="g1serccbO22LYITviWlD-10">
          <mxGeometry relative="1" as="geometry" />
        </mxCell>
        <mxCell id="g1serccbO22LYITviWlD-8" value=" System.out.println (numero1);" style="shape=parallelogram;perimeter=parallelogramPerimeter;whiteSpace=wrap;html=1;fixedSize=1;fontSize=15;" vertex="1" parent="1">
          <mxGeometry x="341" y="390" width="146" height="60" as="geometry" />
        </mxCell>
        <mxCell id="g1serccbO22LYITviWlD-13" value="" style="edgeStyle=orthogonalEdgeStyle;rounded=0;orthogonalLoop=1;jettySize=auto;html=1;fontSize=15;" edge="1" parent="1" source="g1serccbO22LYITviWlD-10" target="g1serccbO22LYITviWlD-12">
          <mxGeometry relative="1" as="geometry" />
        </mxCell>
        <mxCell id="g1serccbO22LYITviWlD-10" value="int numero2 = random.nextInt(6);" style="shape=parallelogram;perimeter=parallelogramPerimeter;whiteSpace=wrap;html=1;fixedSize=1;fontSize=15;" vertex="1" parent="1">
          <mxGeometry x="354" y="500" width="120" height="60" as="geometry" />
        </mxCell>
        <mxCell id="g1serccbO22LYITviWlD-16" value="" style="edgeStyle=orthogonalEdgeStyle;rounded=0;orthogonalLoop=1;jettySize=auto;html=1;fontSize=15;" edge="1" parent="1" source="g1serccbO22LYITviWlD-12" target="g1serccbO22LYITviWlD-15">
          <mxGeometry relative="1" as="geometry" />
        </mxCell>
        <mxCell id="g1serccbO22LYITviWlD-12" value="System.out.println (numero1);" style="shape=parallelogram;perimeter=parallelogramPerimeter;whiteSpace=wrap;html=1;fixedSize=1;fontSize=15;" vertex="1" parent="1">
          <mxGeometry x="341" y="610" width="146" height="60" as="geometry" />
        </mxCell>
        <mxCell id="g1serccbO22LYITviWlD-18" value="" style="edgeStyle=orthogonalEdgeStyle;rounded=0;orthogonalLoop=1;jettySize=auto;html=1;fontSize=15;entryX=0.5;entryY=0;entryDx=0;entryDy=0;" edge="1" parent="1" source="g1serccbO22LYITviWlD-15" target="g1serccbO22LYITviWlD-17">
          <mxGeometry relative="1" as="geometry" />
        </mxCell>
        <mxCell id="g1serccbO22LYITviWlD-35" style="edgeStyle=orthogonalEdgeStyle;rounded=0;orthogonalLoop=1;jettySize=auto;html=1;exitX=1;exitY=0.5;exitDx=0;exitDy=0;" edge="1" parent="1" source="g1serccbO22LYITviWlD-15" target="g1serccbO22LYITviWlD-26">
          <mxGeometry relative="1" as="geometry" />
        </mxCell>
        <mxCell id="g1serccbO22LYITviWlD-15" value="ARITHMETIC EXCEPTION" style="rhombus;whiteSpace=wrap;html=1;fontSize=15;" vertex="1" parent="1">
          <mxGeometry x="341" y="775" width="156" height="80" as="geometry" />
        </mxCell>
        <mxCell id="g1serccbO22LYITviWlD-23" value="" style="edgeStyle=orthogonalEdgeStyle;rounded=0;orthogonalLoop=1;jettySize=auto;html=1;fontSize=15;" edge="1" parent="1" source="g1serccbO22LYITviWlD-17" target="g1serccbO22LYITviWlD-22">
          <mxGeometry relative="1" as="geometry">
            <Array as="points">
              <mxPoint x="244" y="1030" />
            </Array>
          </mxGeometry>
        </mxCell>
        <mxCell id="g1serccbO22LYITviWlD-17" value="stampa&lt;br style=&quot;font-size: 15px;&quot;&gt;&quot;ERRORE ARITMETICO&quot;" style="shape=parallelogram;perimeter=parallelogramPerimeter;whiteSpace=wrap;html=1;fixedSize=1;fontSize=15;" vertex="1" parent="1">
          <mxGeometry x="184" y="850" width="120" height="60" as="geometry" />
        </mxCell>
        <mxCell id="g1serccbO22LYITviWlD-19" value="double divisione = numero1 / numero2" style="shape=parallelogram;perimeter=parallelogramPerimeter;whiteSpace=wrap;html=1;fixedSize=1;fontSize=15;" vertex="1" parent="1">
          <mxGeometry x="304" y="680" width="266" height="60" as="geometry" />
        </mxCell>
        <mxCell id="g1serccbO22LYITviWlD-25" style="edgeStyle=orthogonalEdgeStyle;rounded=0;orthogonalLoop=1;jettySize=auto;html=1;exitX=0.5;exitY=1;exitDx=0;exitDy=0;entryX=0;entryY=0.5;entryDx=0;entryDy=0;fontSize=15;" edge="1" parent="1" source="g1serccbO22LYITviWlD-22" target="g1serccbO22LYITviWlD-34">
          <mxGeometry relative="1" as="geometry">
            <mxPoint x="327" y="180" as="targetPoint" />
            <Array as="points">
              <mxPoint x="420" y="1090" />
              <mxPoint x="100" y="1090" />
              <mxPoint x="100" y="170" />
            </Array>
          </mxGeometry>
        </mxCell>
        <mxCell id="g1serccbO22LYITviWlD-22" value="" style="ellipse;whiteSpace=wrap;html=1;fontSize=15;" vertex="1" parent="1">
          <mxGeometry x="380" y="990" width="80" height="80" as="geometry" />
        </mxCell>
        <mxCell id="g1serccbO22LYITviWlD-28" style="edgeStyle=orthogonalEdgeStyle;rounded=0;orthogonalLoop=1;jettySize=auto;html=1;exitX=0.5;exitY=1;exitDx=0;exitDy=0;entryX=1;entryY=0.5;entryDx=0;entryDy=0;fontSize=15;" edge="1" parent="1" source="g1serccbO22LYITviWlD-26" target="g1serccbO22LYITviWlD-22">
          <mxGeometry relative="1" as="geometry" />
        </mxCell>
        <mxCell id="g1serccbO22LYITviWlD-26" value="stampa divisione" style="shape=parallelogram;perimeter=parallelogramPerimeter;whiteSpace=wrap;html=1;fixedSize=1;fontSize=15;" vertex="1" parent="1">
          <mxGeometry x="542" y="910" width="120" height="60" as="geometry" />
        </mxCell>
        <mxCell id="g1serccbO22LYITviWlD-32" style="edgeStyle=orthogonalEdgeStyle;rounded=0;orthogonalLoop=1;jettySize=auto;html=1;exitX=1;exitY=0.5;exitDx=0;exitDy=0;fontSize=15;entryX=1;entryY=0.5;entryDx=0;entryDy=0;" edge="1" parent="1" source="g1serccbO22LYITviWlD-34" target="g1serccbO22LYITviWlD-33">
          <mxGeometry relative="1" as="geometry">
            <mxPoint x="600" y="180.25" as="targetPoint" />
            <mxPoint x="501" y="180" as="sourcePoint" />
            <Array as="points">
              <mxPoint x="730" y="170" />
              <mxPoint x="730" y="1230" />
            </Array>
          </mxGeometry>
        </mxCell>
        <mxCell id="g1serccbO22LYITviWlD-33" value="end" style="ellipse;whiteSpace=wrap;html=1;fontSize=15;" vertex="1" parent="1">
          <mxGeometry x="377" y="1190" width="120" height="80" as="geometry" />
        </mxCell>
        <mxCell id="g1serccbO22LYITviWlD-34" value="i=1; i&amp;lt;=100; i++;" style="shape=hexagon;perimeter=hexagonPerimeter2;whiteSpace=wrap;html=1;fixedSize=1;" vertex="1" parent="1">
          <mxGeometry x="349" y="130" width="120" height="80" as="geometry" />
        </mxCell>
        <mxCell id="g1serccbO22LYITviWlD-36" value="T" style="text;html=1;align=center;verticalAlign=middle;resizable=0;points=[];autosize=1;strokeColor=none;fillColor=none;" vertex="1" parent="1">
          <mxGeometry x="255" y="785" width="30" height="30" as="geometry" />
        </mxCell>
        <mxCell id="g1serccbO22LYITviWlD-38" value="F" style="text;html=1;align=center;verticalAlign=middle;resizable=0;points=[];autosize=1;strokeColor=none;fillColor=none;" vertex="1" parent="1">
          <mxGeometry x="575" y="785" width="30" height="30" as="geometry" />
        </mxCell>
      </root>
    </mxGraphModel>
  </diagram>
</mxfile>
